<svg id="Layer_1" data-name="Layer 1" xmlns="http://www.w3.org/2000/svg" viewBox="0 0 156.54 121.19"><defs><style>.cls-1{font-size:14.64px;font-family:AllRoundGothic-Medium, All Round Gothic;font-weight:500;letter-spacing:0.18em;}.cls-1,.cls-8{fill:#212020;}.cls-2{fill:#763786;}.cls-2,.cls-3,.cls-4,.cls-5,.cls-6,.cls-7{stroke:#212020;stroke-miterlimit:10;stroke-width:1.63px;}.cls-10,.cls-11,.cls-2,.cls-5,.cls-6,.cls-7,.cls-9{opacity:0.6;}.cls-3{fill:none;}.cls-4{fill:#48aee2;opacity:0.61;}.cls-5{fill:#3d9d4b;}.cls-6{fill:#fee826;}.cls-7{fill:#b3201f;}.cls-9{fill:#dc8d22;}.cls-10{fill:#9c1f7e;}.cls-11{fill:#148c81;}</style></defs><text class="cls-1" transform="translate(0.54 117.66)">GRAPHIC DESIGN</text><path class="cls-2" d="M108.64,16.41H136c15.7,0,22.52,8.68,22.52,20.48,0,9.55-4.48,17.06-14.52,19.6L160.9,80.18H149L133.8,57.37H118.59V80.18h-10Zm27.5,31.79c9.26,0,12.38-4.88,12.38-11.31s-3.22-11.31-12.38-11.31H118.59V48.2Z" transform="translate(-7.31 -6.36)"/><path class="cls-3" d="M108.64,16.41H136c15.7,0,22.52,8.68,22.52,20.48,0,9.55-4.48,17.06-14.52,19.6L160.9,80.18H149L133.8,57.37H118.59V80.18h-10Zm27.5,31.79c9.26,0,12.38-4.88,12.38-11.31s-3.22-11.31-12.38-11.31H118.59V48.2Z" transform="translate(-7.31 -6.36)"/><path class="cls-4" d="M92.14,9.92H139v9.16H102.09V36.64h31.3V45.8h-31.3V64.52H139v9.17H92.14Z" transform="translate(-7.31 -6.36)"/><path class="cls-3" d="M92.14,9.92H139v9.16H102.09V36.64h31.3V45.8h-31.3V64.52H139v9.17H92.14Z" transform="translate(-7.31 -6.36)"/><path class="cls-5" d="M74.77,22.41H54.58V13.24H105v9.17H84.71V77H74.77Z" transform="translate(-7.31 -6.36)"/><path class="cls-3" d="M74.77,22.41H54.58V13.24H105v9.17H84.71V77H74.77Z" transform="translate(-7.31 -6.36)"/><path class="cls-6" d="M35.82,7.18h46.9v9.16h-37V33.89h31.3v9.17H45.76V61.78h37V71H35.82Z" transform="translate(-7.31 -6.36)"/><path class="cls-3" d="M35.82,7.18h46.9v9.16h-37V33.89h31.3v9.17H45.76V61.78h37V71H35.82Z" transform="translate(-7.31 -6.36)"/><path class="cls-7" d="M8.13,11.85H34.84c16.09,0,23.21,8.87,23.21,21S50.93,53.87,34.84,53.87H18.07V75.62H8.13ZM35,44.71c9.55,0,13-5.07,13-11.9S44.59,21,35,21h-17v23.7Z" transform="translate(-7.31 -6.36)"/><path class="cls-3" d="M8.13,11.85H34.84c16.09,0,23.21,8.87,23.21,21S50.93,53.87,34.84,53.87H18.07V75.62H8.13ZM35,44.71c9.55,0,13-5.07,13-11.9S44.59,21,35,21h-17v23.7Z" transform="translate(-7.31 -6.36)"/><path class="cls-8" d="M7.83,100.18h3c.06,1.93,1.54,3.19,4.22,3.19s4.27-1.26,4.27-3.19c0-2.08-2.11-2.41-4.48-2.83-3.07-.54-6.59-1.14-6.59-5.56,0-3.58,2.7-6.05,6.83-6.05s6.73,2.34,6.85,5.87H19.06c-.09-1.75-1.45-3-3.88-3s-3.95,1.32-3.95,3.13c0,2.07,2.14,2.4,4.52,2.82,3.1.55,6.62,1.15,6.62,5.57,0,3.76-2.89,6.11-7.28,6.11S7.92,103.91,7.83,100.18Z" transform="translate(-7.31 -6.36)"/><path class="cls-8" d="M24.44,96c0-5.9,4.33-10.23,10.47-10.23S45.38,90.07,45.38,96,41.05,106.2,34.91,106.2,24.44,101.86,24.44,96Zm17.84,0a7.1,7.1,0,0,0-7.37-7.4,7.4,7.4,0,0,0,0,14.8A7.1,7.1,0,0,0,42.28,96Z" transform="translate(-7.31 -6.36)"/><path class="cls-9" d="M42.28,96a7.11,7.11,0,0,1-7.37,7.41,7.41,7.41,0,0,1,0-14.81A7.1,7.1,0,0,1,42.28,96Z" transform="translate(-7.31 -6.36)"/><path class="cls-8" d="M59.34,98.49c3.1-.78,4.48-3.09,4.48-6,0-3.64-2.11-6.32-6.94-6.32H48.42V105.8h3.06v-7h4.7l4.7,7h3.66Zm-7.86-2.55V89H56.9c2.83,0,3.82,1.48,3.82,3.49s-1,3.49-3.82,3.49Z" transform="translate(-7.31 -6.36)"/><path class="cls-10" d="M60.72,92.45c0,2-1,3.49-3.82,3.49H51.48V89H56.9C59.73,89,60.72,90.44,60.72,92.45Z" transform="translate(-7.31 -6.36)"/><path class="cls-8" d="M67.28,86.13H81.75V89H70.35v5.41H80V97.2H70.35V103h11.4v2.83H67.28Z" transform="translate(-7.31 -6.36)"/><path class="cls-8" d="M84.7,93.89c0-5,3-8.15,8.3-8.15s8.34,3.16,8.34,8.15v11.92H98.27V93.89c0-3.31-1.81-5.32-5.27-5.32s-5.23,2-5.23,5.32v11.92H84.7Z" transform="translate(-7.31 -6.36)"/><path class="cls-8" d="M103.89,100.18h3c.06,1.93,1.54,3.19,4.21,3.19s4.28-1.26,4.28-3.19c0-2.08-2.11-2.41-4.49-2.83-3.07-.54-6.59-1.14-6.59-5.56,0-3.58,2.71-6.05,6.83-6.05s6.74,2.34,6.86,5.87h-2.92c-.09-1.75-1.44-3-3.88-3s-3.94,1.32-3.94,3.13c0,2.07,2.14,2.4,4.52,2.82,3.09.55,6.61,1.15,6.61,5.57,0,3.76-2.88,6.11-7.28,6.11S104,103.91,103.89,100.18Z" transform="translate(-7.31 -6.36)"/><path class="cls-8" d="M131,85.74c-6.14,0-10.47,4.33-10.47,10.22S124.83,106.2,131,106.2s10.47-4.33,10.47-10.24S137.1,85.74,131,85.74Zm0,17.63A7.4,7.4,0,1,1,138.34,96,7.1,7.1,0,0,1,131,103.37Z" transform="translate(-7.31 -6.36)"/><path class="cls-11" d="M138.34,96A7.37,7.37,0,1,1,131,88.57,7.1,7.1,0,0,1,138.34,96Z" transform="translate(-7.31 -6.36)"/><path class="cls-8" d="M144,93.89c0-5,3-8.15,8.31-8.15s8.33,3.16,8.33,8.15v11.92h-3.07V93.89c0-3.31-1.8-5.32-5.26-5.32s-5.24,2-5.24,5.32v11.92H144Z" transform="translate(-7.31 -6.36)"/></svg>